<?xml version="1.0" encoding="utf-8"?>
<svg version="1.1" xmlns="http://www.w3.org/2000/svg" viewBox="0 0 100 100" preserveAspectRatio="none">
<path d="M5,9v1H0V5h1C1,7.209,2.791,9,5,9zM5,0v1c2.209,0,4,1.791,4,4h1V0H5zM5,9c2.209,0,4-1.791,4-4H5V9zM5,1C2.791,1,1,2.791,1,5h4V1zM95,1V0h-5v5h1C91,2.791,92.791,1,95,1zM95,9v1h5V5h-1C99,7.209,97.209,9,95,9zM91,5c0,2.209,1.791,4,4,4V5H91zM99,5c0-2.209-1.791-4-4-4v4H99zM95,90v1c2.209,0,4,1.791,4,4h1v-5H95zM91,95h-1v5h5v-1C92.791,99,91,97.209,91,95zM95,91c-2.209,0-4,1.791-4,4h4V91zM95,99c2.209,0,4-1.791,4-4h-4V99zM9,95c0,2.209-1.791,4-4,4v1h5v-5H9zM5,91v-1H0v5h1C1,92.791,2.791,91,5,91zM9,95c0-2.209-1.791-4-4-4v4H9zM1,95c0,2.209,1.791,4,4,4v-4H1z"/>
</svg>