<?xml version="1.0" encoding="utf-8"?>
<svg version="1.1" xmlns="http://www.w3.org/2000/svg" viewBox="0 0 100 100" preserveAspectRatio="none">
<path d="M5,1C2.791,1,1,2.791,1,5s1.791,4,4,4s4-1.791,4-4S7.209,1,5,1zM10,0H5v5h5V0zM5,5H0v5h5V5zM100,100H0V0h100V100zM95,1c-2.209,0-4,1.791-4,4s1.791,4,4,4s4-1.791,4-4S97.209,1,95,1z M95,0h-5v5h5V0z M100,5h-5v5h5V5z M95,91c-2.209,0-4,1.791-4,4s1.791,4,4,4s4-1.791,4-4S97.209,91,95,91zM95,95h-5v5h5V95zM100,90h-5v5h5V90zM5,91c-2.209,0-4,1.791-4,4s1.791,4,4,4s4-1.791,4-4S7.209,91,5,91zM10,95H5v5h5V95zM5,90H0v5h5V90z"/>
</svg>